inDegrees=no
num_controls=7
num_derivatives=13
num_iterations=120
num_multipliers=7
num_parameters=0
num_slacks=7
num_states=26
objective=0.513628
objective_accelerations=0.044273
objective_balance=0.002304
objective_effort=0.048400
objective_height=0.407300
objective_ligament=0.011352
solver_duration=1592.038519
status=Solve_Succeeded
success=true
DataType=double
version=3
OpenSimVersion=4.5
endheader
time	/jointset/ground_pelvis/pelvis_tilt/value	/jointset/ground_pelvis/pelvis_tx/value	/jointset/ground_pelvis/pelvis_ty/value	/jointset/hip_l/hip_flexion_l/value	/jointset/hip_l/hip_adduction_l/value	/jointset/hip_l/hip_rotation_l/value	/jointset/back/lumbar_extension/value	/jointset/patellofemoral_l/patellar_flexion_l/value	/jointset/knee_l/knee_flexion_l/value	/jointset/knee_l/knee_adduction_l/value	/jointset/knee_l/knee_rotation_l/value	/jointset/ankle_l/ankle_angle_l/value	/jointset/subtalar_l/subtalar_angle_l/value	/jointset/ground_pelvis/pelvis_tilt/speed	/jointset/ground_pelvis/pelvis_tx/speed	/jointset/ground_pelvis/pelvis_ty/speed	/jointset/hip_l/hip_flexion_l/speed	/jointset/hip_l/hip_adduction_l/speed	/jointset/hip_l/hip_rotation_l/speed	/jointset/back/lumbar_extension/speed	/jointset/patellofemoral_l/patellar_flexion_l/speed	/jointset/knee_l/knee_flexion_l/speed	/jointset/knee_l/knee_adduction_l/speed	/jointset/knee_l/knee_rotation_l/speed	/jointset/ankle_l/ankle_angle_l/speed	/jointset/subtalar_l/subtalar_angle_l/speed	/forceset/tau_hip_flexion_l	/forceset/tau_hip_adduction_l	/forceset/tau_hip_rotation_l	/forceset/tau_knee_flexion_l	/forceset/tau_ankle_angle_l	/forceset/tau_subtalar_angle_l	/forceset/tau_lumbar_extension	lambda_cid13_p0	lambda_cid13_p1	lambda_cid13_p2	lambda_cid13_p3	lambda_cid13_p4	lambda_cid13_p5	lambda_cid14_p0	/jointset/ground_pelvis/pelvis_tilt/accel	/jointset/ground_pelvis/pelvis_tx/accel	/jointset/ground_pelvis/pelvis_ty/accel	/jointset/hip_l/hip_flexion_l/accel	/jointset/hip_l/hip_adduction_l/accel	/jointset/hip_l/hip_rotation_l/accel	/jointset/back/lumbar_extension/accel	/jointset/patellofemoral_l/patellar_flexion_l/accel	/jointset/knee_l/knee_flexion_l/accel	/jointset/knee_l/knee_adduction_l/accel	/jointset/knee_l/knee_rotation_l/accel	/jointset/ankle_l/ankle_angle_l/accel	/jointset/subtalar_l/subtalar_angle_l/accel	gamma_cid13_p0	gamma_cid13_p1	gamma_cid13_p2	gamma_cid13_p3	gamma_cid13_p4	gamma_cid13_p5	gamma_cid14_p0
1	-0.2014473407395916	-0.1014656270472963	0.6903502360911408	1.400856500315361	-0.3264522914695107	0.03149602461056772	-0.9599306592775018	1.260774350284345	1.260774350284408	-0.07525810105182919	-0.1745276096511487	0.145962933589183	0.01424650439538723	0.09800162939323856	0.02266833294814635	0.07325868025353141	-0.2965723215433757	-0.004582428897933206	-0.06296616105436877	-0.0005181213543943033	-0.1772224809647667	-0.1772224809647636	-0.008500515664197678	-2.059730494361273e-05	0.01122761147656667	-0.0002184744528937904	-0.4313776368023676	0.00981266999279683	-0.003269954672998717	-0.3081083995811727	0.1134474504442952	0.03518597501402862	0.4526888937820287	-14.78581417996821	-12.15171214169441	0.8654362328767692	6.370755244291429	-798.2913343626337	-65.20267059261421	-0.2917929707004528	1.142715830054586	0.1535560241715679	1.473711418395862	-5.237985891950631	-0.09062990094538896	-1.572081046451633	0.1010258927565593	-4.546539896321906	-4.546539896321888	-0.2390441107955253	-0.01030982646214576	-0.7535152028361487	-0.3566263029019062	-1.176249099213737e-08	-1.138462307985461e-08	5.785555626469319e-08	4.531881001045618e-09	-2.533446560330978e-08	7.902377530176127e-08	-1.551006631707052e-08
1.01	-0.2004099746092275	-0.1012312232632646	0.6911563135187311	1.397629237054058	-0.3265018803809336	0.03078727232974567	-0.9599310078226622	1.258775347258025	1.258775347258038	-0.07535337196057462	-0.1745275680496245	0.1460377719892054	0.01422747035419967	0.1095401831177168	0.02421918622806576	0.08794824798439171	-0.348922789061435	-0.005324842496129353	-0.0787862646523403	0.0003701961708141793	-0.22255002992071	-0.2225500299207057	-0.01053499815188163	2.526565218591453e-05	0.003745596352876546	-0.003574003304289669	-0.4302580021254496	0.0100277929419346	-0.003320792151382684	-0.3077620499016399	0.1133075093195306	0.03529822813742113	0.4519089600009112	-14.77469293770717	-12.21156616794421	0.8854361336051589	6.270409126307306	-797.5351042368129	-65.2625852970443	-0.3090093137062346	1.169710953357655	0.1568658796127686	1.465289803292082	-5.239948824703828	-0.06447460311135357	-1.587287591757633	0.07100225972521609	-4.521644243356623	-4.52164424335673	-0.1828606236289522	0.01150412413959011	-0.7447163806467479	-0.3228721471956708	-1.653136062450888e-08	-1.880007257928813e-08	7.355520011881973e-08	7.689256800354506e-09	-3.022618565434e-08	9.349448319745339e-08	-1.993074009830052e-08
1.02	-0.1992551657796759	-0.1009811077664916	0.6921090286942021	1.393877194788979	-0.3265585789311094	0.02992025649788638	-0.9599248196771086	1.25632391237252	1.256323912372483	-0.0754684297553717	-0.1745271738650613	0.1460379558952887	0.01417530983031071	0.1214901692307217	0.02581067549640895	0.1025862298296909	-0.4015281222983049	-0.006004356648510524	-0.0946188712618207	0.0007892167889070266	-0.2677088528016965	-0.2677088528016947	-0.01245789287452894	4.991930287896927e-05	-0.003703287311263727	-0.006843770993175256	-0.4291383674485317	0.01024291589107236	-0.003371629629766648	-0.3074157002218698	0.1131675681947661	0.03541048126061618	0.4511290262198788	-14.77364169285477	-12.26887019493564	0.904130830007853	6.210021313846091	-796.9123383429039	-65.3059425296329	-0.3308694312075193	1.225002307759909	0.1616832218563202	1.463394241283642	-5.28895903571277	-0.07805001178239306	-1.574581648753418	0.007166511333435113	-4.512794681330527	-4.512794681330472	-0.2167265577880438	-0.01455168774944015	-0.7468889109259733	-0.3394740703998488	-2.188004573636922e-08	-2.821217932431714e-08	9.442003979604821e-08	1.01229599020168e-08	-3.315061031641692e-08	1.083307141859982e-07	-2.549761913488657e-08
1.03	-0.1979807960482873	-0.1007146589774209	0.6932075679591665	1.389600035598152	-0.3266217653226902	0.02889524778689498	-0.9599125181907885	1.253421996364776	1.253421996364759	-0.07560247268780038	-0.1745265849803733	0.1459638700259627	0.01409088880328095	0.1332524456269491	0.02750776875477096	0.1170833208753703	-0.453725287382832	-0.006625134480906212	-0.1103523425676372	0.002020564952834741	-0.3126195169099754	-0.3126195169099672	-0.01435976694021152	6.421051607286234e-05	-0.01110260033008324	-0.01002736339977947	-0.4300669434870862	0.01059767531133437	-0.003443809629100278	-0.3062992647595225	0.1127707460356932	0.03574225810650972	0.4528534119336208	-14.89432771654988	-12.41439311225684	0.9531042489636283	5.65825376813511	-797.4257553627945	-65.38815591436931	-0.3578258582748939	1.132137535977996	0.1780278679434098	1.437113964445862	-5.158334964153281	-0.05293135548149849	-1.568176910772666	0.2335416405763089	-4.471971250960221	-4.471971250959425	-0.1782948154291507	0.008899459233886624	-0.7347615216087962	-0.3058485661774688	-2.723464733271414e-08	-3.764466012287265e-08	1.153375855531043e-07	1.254927858839699e-08	-3.605496053574942e-08	1.23170675002021e-07	-3.107619414346606e-08
1.04	-0.1965927441068517	-0.1004303781577432	0.6944499276202347	1.384806256812613	-0.3266909274298977	0.02771381495499003	-0.9598774186884982	1.250072619920872	1.250072619920876	-0.07575580975778004	-0.1745259571968775	0.1458161292215988	0.0139750225041078	0.1442266112401303	0.02937708161782382	0.1313503090504809	-0.5048520412405851	-0.007199499773839615	-0.1259036954445297	0.005348819982915422	-0.3572009400336039	-0.3572009400335913	-0.01631672038472558	5.769906447500956e-05	-0.01843427431885706	-0.01313282542185418	-0.4309955195256408	0.01095243473159636	-0.003515989628433887	-0.3051828292971752	0.1123739238766204	0.03607403495240327	0.4545777976473626	-15.02515887629252	-12.55743184671095	1.000873173966903	5.144693677573581	-798.0746500486007	-65.45462038885537	-0.3903693101035352	1.067380151150683	0.1961271427944907	1.4173736671699	-5.074876790358192	-0.06876750388993561	-1.538157962968617	0.4265478845640278	-4.446946484400807	-4.446946484400793	-0.2277424335543443	-0.01871222070729437	-0.7333611049168386	-0.3238479934939509	-3.195489026298929e-08	-4.628580752431156e-08	1.227200067202477e-07	1.766147493892608e-08	-4.475948174258801e-08	1.273744471161808e-07	-3.338281015564471e-08
1.05	-0.1950969094723159	-0.1001265215079176	0.6958341183930453	1.379504119797843	-0.3267655459175715	0.02637758055352281	-0.9598015529407795	1.24627882485903	1.246278824859036	-0.07592883656809735	-0.1745254886128242	0.1455956321707176	0.0138286431479254	0.1550064877069375	0.03142500605322607	0.1454806866210833	-0.5556409833981589	-0.007707713469619287	-0.1413376734879282	0.009875064099683377	-0.4015293175865248	-0.4015293175865157	-0.01827349989546841	3.639207451204195e-05	-0.02563132820734152	-0.01611105978016501	-0.430987510600466	0.01133308803628404	-0.003600786198174767	-0.3042720115448144	0.1122989792927654	0.03641133447051244	0.4552249056282373	-15.02390080091416	-12.72561757883739	1.052217593059836	4.647943113943406	-798.1936726823031	-65.5945279214075	-0.4290884119027671	1.093213989958779	0.213743373809769	1.409785149613439	-5.090750863292377	-0.03938341164971399	-1.545222475258486	0.4732728560633141	-4.421463038795046	-4.42146303879559	-0.177394404699381	0.006246495478717193	-0.7078098277992623	-0.2800193744793921	-3.665530948494976e-08	-5.490222575709059e-08	1.296794552439565e-07	2.285760496645981e-08	-5.364525829278613e-08	1.312458383334073e-07	-3.558717744918584e-08
1.06	-0.1934912915540094	-0.09980126195775864	0.6973593960110837	1.373692123774531	-0.3268447535640486	0.02488716542157501	-0.9596789027157272	1.242042610092047	1.242042610092055	-0.0761209809124951	-0.1745252158119465	0.1453041781215544	0.01365343980466394	0.1661832679942652	0.0336576616845002	0.1595676780960069	-0.6068238429491495	-0.00811733153450816	-0.1567398415406478	0.01470571544965688	-0.4456848810617389	-0.4456848810617334	-0.02014022720081699	1.854242932968114e-05	-0.03262567397522784	-0.01889762283766559	-0.4309795016752912	0.01171374134097173	-0.003685582767915626	-0.3033611937924664	0.1122240347089103	0.03674863398862161	0.4558720136091599	-15.03281581584759	-12.89149196190943	1.102588076912483	4.186255982835029	-798.4503135614333	-65.72076427560799	-0.4746154168472619	1.146760915254805	0.2330733819688689	1.408696448034116	-5.153660269041577	-0.04904837771177636	-1.531795964832856	0.487429331205135	-4.412383668859475	-4.412383668859472	-0.2097319924755554	-0.01802075175117296	-0.6928194807973431	-0.2855137333319034	-3.902526748285299e-08	-6.471295802548482e-08	1.40720133824629e-07	2.096490168243781e-08	-5.512391736240355e-08	1.362790470488922e-07	-3.916279635771144e-08
1.07	-0.1917733313686828	-0.0994527785696965	0.699025017436724	1.367368235533749	-0.3269275643430267	0.02324318405905498	-0.9595045655831922	1.237365895985293	1.237365895985329	-0.07633157994473722	-0.1745250828552604	0.1449434795670512	0.01345121082958442	0.1773328184069649	0.0360673502701397	0.1735184074599564	-0.6578275096229242	-0.008426425796994024	-0.1720290552426865	0.02039985681364273	-0.4896090103966921	-0.4896090103966781	-0.02197812072813004	1.09558033956012e-05	-0.03951021670161295	-0.02152514248599306	-0.4307736356374756	0.01213867251513011	-0.003785143262565716	-0.3021587723857065	0.1121032474522686	0.03714208535418786	0.4565614183129768	-15.02769081953916	-13.08907051106275	1.163563329345686	3.654796623155317	-798.3240754328831	-65.8696828290788	-0.5276775370983704	1.08765543118129	0.249170455122102	1.382519987706518	-5.054781035954991	-0.01908945293324081	-1.523415296651103	0.646128402439079	-4.375079468072403	-4.375079468071096	-0.1706233689947078	0.008343688590795002	-0.6857026806320552	-0.2479222498539389	-4.127126477734889e-08	-7.458721763619903e-08	1.519778991104593e-07	1.869513279673726e-08	-5.620858082135173e-08	1.41374054567476e-07	-4.281135418192772e-08
1.08	-0.1899461550138485	-0.09907934752412585	0.7008289979174299	1.360538098392348	-0.3270129159651131	0.02144712431476041	-0.9592661426643284	1.232251410204737	1.232251410204802	-0.07656051897947956	-0.1745249315035124	0.1445140493828696	0.01322339642416748	0.1880265018958143	0.03864719318620385	0.1872394891091517	-0.7080736230730814	-0.008625500156129687	-0.1871555178955565	0.02752287271537781	-0.5332392158220119	-0.533239215821989	-0.02380822770086423	2.222144167434376e-05	-0.04637199991091703	-0.02401470890515137	-0.4305677695996601	0.01256360368928849	-0.003884703757215764	-0.3009563509789466	0.1119824601956268	0.03753553671975409	0.4572508230167936	-15.03273576146271	-13.28448387299574	1.223754276373474	3.155208067560987	-798.3371230309342	-66.00717786798918	-0.5890010632424201	1.055587530484746	0.2671042480537988	1.362766905083273	-5.002149624317988	-0.02704439704174334	-1.499245754999092	0.7732042387549775	-4.353598886932786	-4.353598886932782	-0.2081746815597852	-0.0142502989086084	-0.6882675773811884	-0.2579230874980736	-4.396349797126316e-08	-8.315164282554452e-08	1.555049112286613e-07	2.003832170997761e-08	-6.04708963951452e-08	1.411346539487848e-07	-4.4535468271703e-08
